<?xml version="1.0" encoding="UTF-8"?><svg id="Ballon" xmlns="http://www.w3.org/2000/svg" width="147.67" height="151.15" viewBox="0 0 147.67 151.15"><defs><style>.cls-1{fill:none;stroke:#f0f7fe;stroke-linecap:round;stroke-linejoin:round;}</style></defs><path class="cls-1" d="M75.66,71.84c-1.95-.64-3.83-1.49-5.8-2.04-2.24-.63-4.56-.91-6.88-1.13-3.21-.3-6.41-.26-9.62.1-1.95.22-3.81.8-5.68,1.33-.14.04-.23.22-.44.21-1.9-.07-3.04,1.21-4.27,2.39-1.71,1.64-3.58,3.12-5.33,4.72-.47.43-.97.36-1.43.29-1.85-.26-3.74-.16-5.58-.52-.25-.05-.58-.11-.75,0-1.66,1.14-3.71,1.12-5.48,1.94-3.46,1.6-6.44,3.83-8.95,6.68-2.03,2.3-3.81,4.77-5.38,7.41-2.28,3.83-4.07,7.89-5.65,12.04-1.78,4.66-3.11,9.47-3.69,14.43-.42,3.64-.36,7.33,1.07,10.81,1.57,3.82,4.59,5.96,8.51,6.88,3.01.71,6.08,1.1,9.17.87,2.59-.19,5.14-.67,7.33-2.26.4-.29.84-.55,1.3-.79,1.05-.55,2.01-1.46,3.28-.53.1.07.15.11.22.11,5.58.25,11-.2,15.74-3.61,2.36-1.7,3.84-4.07,5.03-6.66,1.66-3.6,2.51-7.44,3.34-11.27.39-1.78.57-3.63.83-5.45.33-2.32.48-4.67.75-7"/><path class="cls-1" d="M78.22,3.54c-.76-.11-1.44-.42-2.14-.74-2.48-1.15-5.12-1.76-7.86-1.53-4.53.38-7.65,2.88-9.85,6.75-1.39,2.43-2.25,4.99-2.63,7.76-.25,1.82-.52,3.64-.4,5.47.3,4.64,1.29,9.14,3.06,13.44,2.08,5.08,4.92,9.68,8.72,13.67,3.5,3.67,7.71,6.12,12.46,7.77.95.33,2,.5,2.74,1.29"/><path class="cls-1" d="M98.39,83.53c.45.66,1.15.88,1.86,1.09,4.14,1.22,7.54,3.59,10.37,6.78,3.65,4.13,6.12,8.98,8.31,13.98,2.14,4.88,3.59,9.97,4.58,15.19.62,3.32.66,6.71.4,10.05-.31,4.02-1.56,7.78-4.55,10.71-1.74,1.71-3.84,2.9-6.23,3.36-2.12.41-4.29.41-6.44.11-.57-.08-1.02.02-1.29.38-.54.72-1.3,1.18-1.88,1.84-1.83,2.06-4.28,2.82-6.88,3.28-3.5.62-6.94.35-10.38-.44-5.9-1.35-10.43-4.44-13.24-9.94-2.47-4.84-4.11-9.96-5.46-15.19-1.06-4.11-1.8-8.27-2.37-12.46-.44-3.29-.59-6.61-.47-9.94.02-.48.08-.97-.2-1.43-.08-.13-.18-.3-.03-.55.94-1.61.77-3.5,1.21-5.24,1.03-4.06,2.62-7.77,6.12-10.39,1.51-1.13,3.24-1.63,5.04-1.94.39-.07.72-.26,1.09-.34"/><path class="cls-1" d="M87.13,84.84c-2.76-.41-5.44-1.1-8.08-1.99-.54-.18-.85-.65-1.16-1.26-1.19-2.41-1.66-4.93-1.7-7.57,0-.18-.02-.36-.08-.55-.32-.96-.27-1.88.18-2.84.59-1.26.61-2.7.99-4.04.75-2.61,1.78-5.05,3.6-7.11.48-.54,1.1-1,1.32-1.74.12-.42.46-.42.77-.49,1.48-.34,3-.31,4.48-.6.14-.03.34-.06.43,0,1.47,1.11,3.27.98,4.93,1.25.75.12,1.24.4,1.62.93,1.07,1.51,2.1,3.08,3.74,4.01,1.08.62,2.26,1.09,3.37,1.68.87.47,1.49,1.02,1.84,2.15.48,1.57,1.23,3.07,1.44,4.73.49,3.91-.07,7.86-4.37,10.27-.76.42-1.45.91-2.09,1.52-.54.52-1.33.29-1.96.3-2.64.05-5.25.29-7.86.61-.47.06-.96.35-1.39.78.35,1.05,1.16,1.72,2.05,2.24,4.65,2.76,6.87,7.12,8.07,12.14,1.01,4.23,1.81,8.51,2.64,12.78.97,4.94,2.23,9.78,4.2,14.45,1.34,3.18,2.59,6.46,2.96,9.93.23,2.2.15,4.44-.73,6.55-.22.53-.35,1.07-.32,1.64"/><path class="cls-1" d="M140.79,44.14c.27.2.5-.07.77-.07,1.52.02,1.59.21,1.45,1.77-.19,2-.48,3.98-1.04,5.89-1.29,4.39-4.14,7.65-7.96,10.05-3.31,2.08-6.95,3.3-10.81,3.96-5.98,1.03-11.9.86-17.82-.42-.71-.15-1.56-.25-2.29.19"/><path class="cls-1" d="M108,32.83c-.6-1.52-.32-3.14-.39-4.7-.12-2.58-.82-5.02-1.61-7.42-1.74-5.31-4.36-10.19-8.18-14.31-2.73-2.95-6.02-5.2-10.05-5.74-3.1-.42-6.25-.14-8.86,2.09-.7.6-.71,1.02-.2,1.67.96,1.23,1.97,2.42,2.85,3.71,1.63,2.4,2.48,5.12,3.28,7.87.86,2.94,1.43,5.94,2.39,8.86.94,2.85,2.36,5.45,3.95,7.97,1.45,2.31,2.51,4.8,3.47,7.33.26.68.67,1.23,1.01,1.85"/><path class="cls-1" d="M45.39,70.42c-.3-.92.07-1.77.33-2.62.66-2.15.76-4.31.48-6.56-.44-3.53-1.46-6.88-2.78-10.15-1.95-4.82-4.55-9.23-8.41-12.78-2.83-2.61-6.01-4.32-10.05-3.73-.72.1-1.46.05-2.18.1-1.02.07-1.97.25-2.73,1-.15.15-.27.31-.54.35-1.57.22-2.61,1.18-3.65,2.35-1.09,1.22-2.34,2.25-3.15,3.74-1.49,2.76-2.05,5.65-1.73,8.75.95,9.16,5.43,16.35,12.35,22.18,1.43,1.21,3.16,1.9,4.81,2.73.67.34,1.32.68,1.64,1.42"/><path class="cls-1" d="M37.19,77.85c.66,1.55.28,3.16.07,4.69-.35,2.54.17,4.91,1.05,7.21.91,2.36,2.62,4.13,4.67,5.59.27.19.51.45.78.64,1.14.82,1.54,1.79,1.59,3.29.16,4.89-1.07,9.44-2.92,13.88-2.21,5.29-5.25,10.11-8.41,14.86-1.05,1.57-2.05,3.17-3.16,4.71-.28.39-.48.82-.55,1.31"/><path class="cls-1" d="M142.43,39.93c-.54-.65-.82-1.45-1.22-2.18-1.75-3.2-4.64-4.93-7.96-6.14-2.8-1.02-5.65-1.58-8.64-1.52-2.08.04-4.16-.09-6.23.23-2.69.41-5.26,1.35-7.88,2.01-1.98.5-3.57,1.52-5.25,2.55-2.07,1.26-4.18,2.48-6.09,3.98-1.21.95-1.94,2.45-3.4,3.16-.3.15-.24.56-.34.86-.89,2.83-1.58,5.71-2.49,8.53-.13.41-.36.62-.66.88-1.52,1.39-3.33,2.48-4.49,4.25"/><path class="cls-1" d="M21.02,34.8c-1.18-3.15-2.39-6.29-3.92-9.3-.48-.95-1.09-1.56-2.2-1.52-1.11.04-1.81.73-1.86,1.86-.05,1.09.27,2.09.76,3.06,1.27,2.51,2.46,5.06,3.56,7.65"/><path class="cls-1" d="M45.5,97.63c1.08-.05,2.07.33,3.05.67,2.21.77,4.56,1.06,6.76,1.79,1.82.61,3.58.34,5.38.36,1.2.01,2.4.16,3.61.13"/><path class="cls-1" d="M139.04,41.35c.84-.12,1.7-.08,2.53-.41.39-.15.56-.33.77-.67.85-1.35,3.58-1.36,4.34,0,.63,1.13.62,2.38.22,3.59-.22.67-.72,1.08-1.52.99-.69-.08-1.39.12-2.08-.11"/><path class="cls-1" d="M92.81,52.17c1.05,1.1.51,2.56.84,3.83.16.61.2,1.3.03,1.96"/></svg>