<?xml version="1.0" encoding="UTF-8"?><svg id="minder" xmlns="http://www.w3.org/2000/svg" width="903.09" height="936.84" viewBox="0 0 903.09 936.84"><defs><style>.cls-1{fill:none;stroke:#243c56;stroke-linecap:round;stroke-linejoin:round;}.cls-2{fill:#fef8c8;}</style></defs><path class="cls-1" d="M790.5,782.24c4.37,1.89,8.11,4.63,11.53,7.94,3.17,3.07,5.49,6.39,11.52,5.8,5.11-.5,7.72,5.86,10.61,10.13,8.84,13.06,14.81,27.76,23.76,40.8,15.1,22,30.36,43.88,45.95,65.54,2.34,3.25,5.76,4.9,8.73,8.66-9.71,3.16-19.38,3.19-28.93,2.64-17.4-1-34.81-1.45-52.21-2.36-16.78-.88-33.65-1.3-50.39-2.35-19.76-1.24-39.66-.77-59.28-3.3-28.88-3.71-57.81-6.99-86.71-10.52-29.39-3.59-58.84-5.79-88.48-5.36-7.89.11-13.1,3.83-14.84,10.77-2.57,10.27-10.52,13.56-18.82,14.75-18.75,2.67-37.64,4.41-56.58,5.65-28,1.82-56.06,2.41-84.02,3.97-27.78,1.56-55.53,1.7-83.17.71-16.81-.6-33.64-.55-50.45-1.2-36.26-1.4-72.55-1.31-108.81-2.14-25.36-.58-50.78-2.7-76.06-5.26-11.2-1.13-22.64-1.34-33.62-4.23-4.79-1.26-11.07-3.06-9.48-9.57,1.59-6.52,8.57-6.14,12.89-4.25,17.14,7.49,35.42,5.92,53.21,7.49,18.21,1.6,36.5,2.63,54.82,3.23,16.2.53,32.41,2.37,48.66,3.39,45.39,2.84,90.82,2.73,136.25,3.67,28.08.58,56.04-.69,84.05-1.15,2.05-.03,3.78-.48,5.31-1.81"/><path class="cls-1" d="M45.59,864.56c12.69,3.89,26.02,4.62,38.94,4.92,28.6.67,57.19,1.93,85.8,2.32,22.41.31,44.83.98,67.24.65,34.29-.51,68.44-3.59,102.64-5.83,25.11-1.64,50.53-1.5,74.29,9.44"/><path class="cls-1" d="M895.78,917.67c-11.6,3.64-23.03-.79-34.49-1.28-16.51-.71-32.97-2.58-49.56-2.28-25.14.46-50.33-.37-75.15-3.86-21.23-2.99-42.64-4.32-63.82-8.07-14.41-2.55-29.53-2.38-44.11-4.33-25.9-3.47-52.05-3.06-77.93-6.5-10.43-1.39-21.21-.5-31.82-.13-7.02.24-10.44,5.8-8.85,13.18,1.91,8.85.15,11.59-8.85,13.26-18.13,3.36-36.55,3.17-54.85,4.39-13.56.9-27.2.73-40.69,2.73-3.07.46-5.81-1.5-10.86-.32,10.24-7.43,12.6-18.04,18.56-26.44,11.33-15.96,23.36-16.43,40.04-12.96,17.9,3.73,34.41,11.77,51.35,18.42,1.39.54,2.79,1.36,4.41.91"/><path class="cls-1" d="M418.05,867.21c-38.26-21.42-79.64-32.15-122.95-37.39-31.9-3.86-63.73-4.21-95.55-1.32-18.94,1.72-37.78,4.97-56.65,7.66-20.84,2.97-41.57,7.11-62.81,6.33-1.6-.06-2.96-.6-4.42-.95"/><path class="cls-1" d="M840.92,904.39c-15.88-1.65-30.72-7.45-46.01-11.48-23.86-6.29-47.59-13.42-71.75-18.12-14.13-2.75-28.73-4.57-43.2-6.26-20.94-2.44-41.75-4.91-62.86-4.94-28.14-.03-55.69,4.24-83.19,9.66-10.33,2.04-20.36,5.53-30.93,6.34"/><path class="cls-1" d="M519.78,822.96c6.07,3.09,12.08-.18,17.63-1.21,32.29-5.98,64.88-5.91,97.36-4.71,32.23,1.19,63.92,7.44,95.61,13.6,23.79,4.63,46.61,13.23,70.72,16.2,5.83.72,8.29-2.2,5.14-6.95-3.68-5.54-6.64-11.49-10.33-17.01-1.05-1.57-1.91-2.08-3.62-2.68-24.58-8.64-49.05-17.28-75.21-20.45-17.98-2.18-36-2.8-53.99-3.16-30.96-.61-62.02-1.41-92.87,1.75-31.25,3.2-60.27,13.18-84.86,33.58-3.39,2.81-6.84,5.58-7.75,11.3-.58,3.64-4.4,8.56-9.15,10.71"/><path class="cls-1" d="M83.63,830.04c-3.97,6.3-10.03,11.09-12.48,18.56-2.69,8.2-2.17,9.92,6.29,10.55,7.64.56,15.34-.49,22.99-.93,38.34-2.21,76.56-6.03,115.01-7.3,21.54-.71,43.06-1.23,64.59-1.37,22.37-.15,44.3,3.89,66.4,6.65,12.57,1.57,25.19,4.07,37.99,3.94"/><path class="cls-1" d="M634.79,502.53c2.73,12.03.95,24.84,6.83,36.42,1.19,2.34,2.51,4.64,3.71,6.99,4.88,9.6,3.98,17.83-4.45,24.61-21.54,17.33-36.12,40.66-53.67,61.36-35.93,42.36-66.3,88.83-96.6,135.28-15.12,23.18-28.08,47.44-35.37,74.35-2.59,9.57-2.94,19.58-5.34,29.2"/><path class="cls-1" d="M604.71,483.06c1.77,15.57,2.5,31.42,8.98,45.97,3.22,7.23,1.04,12.86-2.78,18.65-11.44,17.36-23.76,34.11-35.54,51.23-19.03,27.67-35.85,56.61-52.08,85.95-16.49,29.81-33.31,59.45-49.48,89.43-13.1,24.29-23.54,49.61-28.34,76.99"/><path class="cls-1" d="M459.63,744.18c-15.13-51.87-47.04-93.54-81.44-133.62-22.04-25.68-46.79-48.77-70.85-72.5-9.52-9.38-19.57-18.39-30.95-26.18-22.27,13.77-41.71,30.83-58.99,50.11-12.04,13.43-24.29,26.46-38.2,37.93-1.6,1.32-3.03,2.87-4.43,4.41-6.13,6.77-5.68,8.39,1.72,14.2,30.62,24.03,63.27,45.21,94.75,68.04,33.16,24.04,64.21,50.58,93.56,79.02,18.21,17.64,33.92,37.68,48.77,58.29,1.81,2.52,3.52,5.35,2.7,8.81"/><path class="cls-1" d="M507.4,799.06c9.68.38,16.56-6.48,24.68-9.96,28.95-12.39,59.48-17.53,90.31-22.04,25.27-3.7,50.64-6.15,76.1-5.85,29.63.35,59.35,1,88.49,7.68,1.77.41,3.39-1.51,5.33-1.7-8.86-17.19-16.24-35.04-22.85-53.17-2.1-5.75-5.75-6.95-10.79-7.97-24.54-4.99-48.37-.04-71.61,6.51-46.67,13.16-91.65,31.09-135.42,51.99-14.54,6.94-28.63,15.48-39.32,27.01-8.88,9.59-18.54,18.47-28.35,26.45-12.52,10.18-15.88,22.3-17.52,36.79-.79,6.99-4.11,13.72-6.82,20.39"/><path class="cls-1" d="M402.12,838.89c-29.44-18.7-62.07-26.81-96.41-30.3-21.81-2.21-43.54-4.58-65.49-4.23-31.81.51-62.87,6.27-93.79,13.22-20.16,4.53-40.58,7.76-61.04,10.59-2.26.31-4.9,1.01-7.06-.79"/><path class="cls-1" d="M441.93,868.1c-4.01-5-7.09-10.68-10.8-15.8-18.13-25.05-42.81-41.24-71.4-52.56-20.99-8.31-42.68-13.76-64.71-17.2-24.81-3.88-49.94-5.81-75.15-5.63-15.33.11-30.74-.94-45.99.25-20.94,1.64-42.01,1.87-62.83,5.08"/><path class="cls-1" d="M814.38,868.98c-23.83-6.7-47.46-14.03-71.62-19.66-39.08-9.11-78.59-13.82-118.58-15.9-21.28-1.11-42.51-.99-63.69.34-14.08.88-28,3.83-41.54,7.94-2.5.76-4.79.25-7.13.73"/><path class="cls-1" d="M799.34,831.81c-2.95,2.26-6.2.54-8.8-.17-43.3-11.78-87.44-19.57-131.91-24.21-42.35-4.42-85.11-4.42-126.38,8.72-13.71,4.37-26.42,11.92-39.06,19.11-4.71,2.67-8.13,7.63-14.11,8.05"/><path class="cls-1" d="M322.5,886.69c-10.32,0-20.69-.64-30.96.11-38.59,2.86-77.27,2.32-115.89,3.69-17.1.61-34.2,1.5-51.32,1.51-12.98,0-25.96-.35-38.92.11-10.72.38-21.24-1.17-31.85-1.88"/><path class="cls-1" d="M779,872.53c-13.03-2.39-25.83-5.9-38.93-7.97-16.81-2.66-33.53-5.78-50.39-8.2-21.77-3.12-43.69-4.96-65.53-6.44-23.47-1.59-47.18-2.45-70.75.46-12.91,1.6-25.46,4.86-38.04,7.99"/><path class="cls-1" d="M603.83,485.72c-18.76,30.23-32.43,63.17-50.31,93.9-19.04,32.72-40.14,64.2-58.39,97.36-13.87,25.21-27.64,50.67-37,77.92-7.92,23.07-12.64,47.07-14.66,71.58-.79,9.55-2.68,18.83.1,28.38,1.04,3.57-2.02,6.54-3.42,9.7"/><path class="cls-1" d="M198.64,586.62c21.01,19.26,44.48,35.55,65.56,54.78,30.87,28.16,60.21,57.8,88.34,88.65,22.23,24.37,41.69,50.87,59.36,78.72,2.92,4.6,5.47,9.36,7.91,14.19"/><path class="cls-1" d="M282.69,696.38c-3,1.91-6.4,2.22-9.72,1.72-21.59-3.22-43.01-1.25-64.62.52-13.71,1.12-27.63,2.77-41.56,1.46-2.62-.25-4.34-2.8-8.3-1.52-22.53,25.68-45.37,52.62-70,78.23,6.9,5.55,15.63,2.76,23.75,6.3-14.8,16.21-26.92,33.73-41.98,48.6-21.77,21.5-37.04,47.63-53.93,72.64-1.01,1.49-1.95,2.66-1.68,4.48"/><path class="cls-1" d="M768.38,900.85c-9.1-.5-17.66-3.71-26.54-5.29-22.91-4.1-45.66-8.95-68.98-10.85-23.88-1.95-47.72-4.25-71.68-5.13-7.47-.28-14.64,2.48-22.12,1.8"/><path class="cls-1" d="M647.18,545.91c6.78-7.97,12.95-16.55,23.68-23.43.79,12.2,4.65,22.62,8.02,33.21,1.94,6.12,3.53,12.5,5.76,18.43,2.97,7.91-.1,13.57-3.84,19.58-7.37,11.84-17.17,21.81-26.73,31.68-20.33,20.96-40.55,42.06-60.6,63.27-30.68,32.45-60.76,65.45-92.09,97.29-8.51,8.64-16.3,18.26-22.28,29.05-1.23,2.21-4.13,3.98-1.76,7.08"/><path class="cls-1" d="M740.07,701.69c8.86-3.45,18.7-3.12,27.44-6.99-3.78-17.47-18.38-31.85-14.76-51.86-3.28-2.39-6.13,1.29-9.09,2.35-34.71,12.45-70.84,20.38-105.35,33.43-15.85,5.99-32.07,11.12-46.75,19.73-2.23,1.31-3.63.58-5.43.68"/><path class="cls-1" d="M37.63,897.31c13.09,5.09,26.98,6.18,40.7,6.92,36.53,1.97,73.11,2.2,109.69,1.94"/><path class="cls-1" d="M340.89,906.01c-29.58.22-58.99,3.25-88.48,5.12-17.04,1.08-34.2.2-51.3.2"/><path class="cls-1" d="M809.96,797.29c15.62,27.87,28.86,57.03,45.84,84.19,5.72,9.15,10.53,18.92,16.07,28.24,1.11,1.88,2.52,3.84.91,6.18"/><path class="cls-1" d="M331.35,895.54c-27.16-.8-54.27.85-81.39,1.77"/><path class="cls-1" d="M803.77,848.63c10.53,10.4,20.09,21.41,27.66,34.39,7.05,12.09,18.25,20.77,29.98,28.25,2.22,1.42,3.99,3.17,6.06,4.64"/><path class="cls-1" d="M439.28,869.87c-22.27,6.84-33.29,24.3-41.45,44.31-.68,1.67-2.33,4.08-.13,6.14"/><path class="cls-1" d="M444.59,869.87c21.94,8.25,42.66,19.62,65.47,25.67"/><path class="cls-1" d="M786.96,769.85c.93,14.25,5.81,27.49,10.69,40.69,1.34,3.62,3.29,6.88-.96,9.76"/><path class="cls-1" d="M634.79,498.99c-7.54,8.27-14.47,17.01-20.35,26.55"/><path class="cls-2" d="M650.13,378.27c-22.43,1.84-23.61,3.33-25.06,31.7-1.45-28.37-2.63-29.86-25.06-31.7,22.43-1.84,23.61-3.33,25.06-31.7,1.45,28.37,2.63,29.86,25.06,31.7Z"/><path class="cls-2" d="M417.41,206.41c-29.59,3.64-31.15,6.6-33.06,62.87-1.92-56.27-3.47-59.22-33.06-62.87,29.59-3.64,31.15-6.6,33.06-62.87,1.92,56.27,3.47,59.22,33.06,62.87Z"/><path class="cls-2" d="M255.14,392.1c-18.3,1.67-19.26,3.02-20.45,28.81-1.19-25.79-2.15-27.14-20.45-28.81,18.3-1.67,19.26-3.02,20.45-28.81,1.19,25.79,2.15,27.14,20.45,28.81Z"/><path class="cls-2" d="M471.28,342.49c-21.87,4.22-24.07,7.65-26.78,41.68-2.71-34.04-4.91-37.46-26.78-41.68,21.87-4.22,24.07-7.65,26.78-41.68,2.71,34.04,4.91,37.46,26.78,41.68Z"/><path class="cls-2" d="M519.47,529.19c-20.5,3.57-22.56,6.46-25.1,35.23-2.54-28.76-4.6-31.66-25.1-35.23,20.5-3.57,22.56-6.46,25.1-35.23,2.54,28.76,4.6,31.66,25.1,35.23Z"/><path class="cls-2" d="M549.73,184.36c-23.01,3.78-25.33,6.84-28.18,37.29-2.86-30.45-5.17-33.51-28.18-37.29,23.01-3.78,25.33-6.84,28.18-37.29,2.86,30.45,5.17,33.51,28.18,37.29Z"/><path class="cls-2" d="M398.97,453.63c-21.87,4.22-24.07,7.65-26.78,41.68-2.71-34.04-4.91-37.46-26.78-41.68,21.87-4.22,24.07-7.65,26.78-41.68,2.71,34.04,4.91,37.46,26.78,41.68Z"/><path class="cls-2" d="M251.03,244.95c-18.3,1.67-19.26,3.02-20.45,28.81-1.19-25.79-2.15-27.14-20.45-28.81,18.3-1.67,19.26-3.02,20.45-28.81,1.19,25.79,2.15,27.14,20.45,28.81Z"/><path class="cls-2" d="M676.72,246.52c-18.3,1.67-19.26,3.02-20.45,28.81-1.19-25.79-2.15-27.14-20.45-28.81,18.3-1.67,19.26-3.02,20.45-28.81,1.19,25.79,2.15,27.14,20.45,28.81Z"/><path class="cls-2" d="M461.86,19.71c-12.52,1.14-13.17,2.07-13.98,19.71-.81-17.64-1.47-18.56-13.98-19.71,12.52-1.14,13.17-2.07,13.98-19.71.81,17.64,1.47,18.56,13.98,19.71Z"/></svg>