<?xml version="1.0" encoding="UTF-8"?><svg id="Layer_1" xmlns="http://www.w3.org/2000/svg" width="71" height="71" viewBox="0 0 71 71"><defs><style>.cls-1,.cls-2{fill:none;stroke:#f0f7fe;}.cls-2{stroke-miterlimit:10;}</style></defs><path class="cls-2" d="M51.64.5H19.36C8.94.5.5,8.94.5,19.36v32.28c0,10.42,8.44,18.86,18.86,18.86h32.28c10.42,0,18.86-8.44,18.86-18.86V19.36c0-10.42-8.44-18.86-18.86-18.86Z"/><path class="cls-2" d="M35.5,52.4c9.33,0,16.9-7.56,16.9-16.9s-7.56-16.9-16.9-16.9-16.9,7.56-16.9,16.9,7.56,16.9,16.9,16.9Z"/><path class="cls-1" d="M59.14,14.98c0,1.72-1.4,3.12-3.12,3.12s-3.12-1.4-3.12-3.12,1.4-3.12,3.12-3.12,3.12,1.4,3.12,3.12Z"/></svg>