<?xml version="1.0" encoding="UTF-8"?><svg id="Layer_5" xmlns="http://www.w3.org/2000/svg" width="946.77" height="830.39" viewBox="0 0 946.77 830.39"><defs><style>.cls-1{fill:none;stroke:#243c56;stroke-miterlimit:10;}.cls-2{fill:#243c56;}</style></defs><path class="cls-2" d="M6.72,577.53v-116.36h26.75l16.96,51.75c1.09,3.45,2.09,6.93,3.02,10.44.92,3.51,1.88,7.17,2.85,10.98h.65c.98-3.81,1.9-7.46,2.77-10.98.87-3.51,1.85-6.99,2.94-10.44l16.63-51.75h26.75v116.36h-22.02v-42.65c0-3.81.19-8.3.57-13.47.38-5.18.82-10.35,1.3-15.53s.95-9.67,1.39-13.47h-.65l-8.64,30.7-15,44.44h-14.03l-14.84-44.44-8.32-30.7h-.65c.43,3.81.9,8.3,1.39,13.47.49,5.18.9,10.35,1.22,15.53.33,5.18.49,9.67.49,13.47v42.65H6.72Z"/><path class="cls-2" d="M117.46,577.53l33.27-116.36h28.7l33.43,116.36h-25.44l-13.86-58.89c-1.52-5.83-2.99-12.01-4.4-18.56-1.41-6.54-2.83-12.85-4.24-18.92h-.65c-1.2,6.07-2.5,12.38-3.91,18.92-1.41,6.55-2.88,12.73-4.4,18.56l-14.03,58.89h-24.46ZM139.31,549.87v-20.52h51.21v20.52h-51.21Z"/><path class="cls-2" d="M269.78,579.67c-9.68,0-18.46-2.23-26.34-6.69-7.88-4.46-14.14-11.12-18.76-19.99-4.62-8.86-6.93-19.84-6.93-32.93,0-9.64,1.36-18.23,4.08-25.79,2.72-7.55,6.47-13.95,11.25-19.18,4.78-5.23,10.3-9.22,16.55-11.96,6.25-2.73,12.91-4.1,19.98-4.1,7.72,0,14.35,1.49,19.9,4.46,5.55,2.98,10.06,6.54,13.54,10.71l-12.56,15.88c-2.61-2.62-5.46-4.67-8.56-6.16-3.1-1.49-6.93-2.23-11.5-2.23-5.44,0-10.27,1.52-14.52,4.55-4.24,3.03-7.56,7.35-9.95,12.94-2.39,5.59-3.59,12.25-3.59,19.99s1.11,14.79,3.34,20.43c2.23,5.65,5.54,9.97,9.95,12.94,4.4,2.98,9.92,4.46,16.55,4.46,2.17,0,4.29-.3,6.36-.89,2.06-.59,3.75-1.49,5.06-2.68v-19.99h-17.61v-21.42h38.82v53.54c-3.59,3.93-8.46,7.26-14.6,9.99-6.14,2.73-12.97,4.1-20.47,4.1Z"/><path class="cls-2" d="M326.86,577.53v-116.36h23.98v116.36h-23.98Z"/><path class="cls-2" d="M393.73,577.53l-31.48-116.36h25.44l12.07,54.25c.98,4.17,1.93,8.33,2.85,12.49.92,4.17,1.85,8.27,2.77,12.31.92,4.05,1.93,8.21,3.02,12.49h.65c.98-4.28,1.9-8.45,2.77-12.49.87-4.04,1.79-8.15,2.77-12.31.98-4.16,1.96-8.33,2.94-12.49l13.21-54.25h24.46l-32.62,116.36h-28.87Z"/><path class="cls-2" d="M466.63,577.53v-116.36h66.54v22.13h-42.57v23.38h36.21v21.95h-36.21v26.77h44.2v22.13h-68.17Z"/><path class="cls-2" d="M556,577.53v-116.36h25.12l27.24,57.29c1.96,3.93,3.78,8.12,5.46,12.58,1.68,4.46,3.34,9.01,4.97,13.65h.65c-.55-6.3-1.2-13.21-1.96-20.7-.76-7.5-1.14-14.69-1.14-21.59v-41.22h23v116.36h-25.12l-27.24-57.29c-1.85-3.93-3.67-8.15-5.46-12.67-1.79-4.52-3.51-9.04-5.14-13.56h-.65c.65,6.42,1.36,13.36,2.12,20.79.76,7.44,1.14,14.61,1.14,21.51v41.22h-23Z"/><path class="cls-2" d="M664.46,577.53v-116.36h25.12l27.24,57.29c1.96,3.93,3.78,8.12,5.46,12.58,1.68,4.46,3.34,9.01,4.97,13.65h.65c-.55-6.3-1.2-13.21-1.96-20.7-.76-7.5-1.14-14.69-1.14-21.59v-41.22h23v116.36h-25.12l-27.24-57.29c-1.85-3.93-3.67-8.15-5.46-12.67-1.79-4.52-3.51-9.04-5.14-13.56h-.65c.65,6.42,1.36,13.36,2.12,20.79.76,7.44,1.14,14.61,1.14,21.51v41.22h-23Z"/><path class="cls-2" d="M772.91,577.53v-116.36h66.54v22.13h-42.57v23.38h36.21v21.95h-36.21v26.77h44.2v22.13h-68.17Z"/><path class="cls-2" d="M862.29,577.53v-116.36h38.33c7.5,0,14.35,1.1,20.55,3.3,6.2,2.2,11.14,5.95,14.84,11.24,3.69,5.3,5.54,12.52,5.54,21.68s-1.85,16.18-5.54,21.77c-3.7,5.59-8.64,9.73-14.84,12.4-6.2,2.68-13.05,4.02-20.55,4.02h-14.35v41.94h-23.97ZM886.26,514.71h12.39c6.3,0,11.12-1.46,14.43-4.37,3.32-2.92,4.97-7.23,4.97-12.94s-1.66-9.7-4.97-11.96c-3.32-2.26-8.13-3.39-14.43-3.39h-12.39v32.66ZM919.86,577.53l-23.65-48.72,16.64-16.95,33.92,65.67h-26.91Z"/><path class="cls-1" d="M442.68,56.84V3.56s-2.15-2.31-3.08-2.72c-1.18-.52-3.9-.39-5.13,0-1.12.35-3.93,2.72-3.93,2.72l.91,53.3c3.79-.06,7.53-.07,11.22-.03Z"/><path class="cls-1" d="M891.49,273.63c6.86,8.64,12.68,17.14,19.55,25.53,0,0-6.76-10.59-19.55-25.53Z"/><path class="cls-1" d="M765.04,284.28c-25.87-5.44-49.68-11.48-72.46-16.96,41.45,56.01,62.57,113.79,63.8,117.18.03.07.11.09.15.03,1.83-2.46,29.25-38.89,61.72-57.95,40.21-23.6,86.94-26.97,93.11-27.32.14,0,.15-.21.01-.26-42.95-14.31-68.87-50.19-146.34-14.72Z"/><path class="cls-1" d="M456.52,277.09l24.25,131.54c.03.17.21.26.35.16,4.17-3.07,54.33-39.24,110.12-47.16,88.08-12.5,158.54,19.85,164.74,22.81.16.08.33-.09.27-.27-2.11-5.78-23.21-62.16-63.68-116.85-77.44-18.63-142.9-30.71-236.06,9.77Z"/><path class="cls-1" d="M448.89,280.5l2.84,115.82c16.92,6.31,27.25,11.69,28.89,12.55.09.05.2-.04.18-.15l-24.27-131.64c-2.53,1.1-5.07,2.24-7.64,3.41Z"/><path class="cls-1" d="M438.55,285.38c-13.55,6.62-27.68,14.32-42.52,23.24-50.66-21.17-96.28-47.56-164.75-36.92-9.28,14.27-21.02,34.41-34.26,61.76-19.97,41.25-28.41,73.85-28.98,76.06-.01.05.03.09.08.07,2.91-1.46,65.18-32.33,143.34-35.86,52.89-2.39,98.68,8.43,129.27,18.71l-2.18-107.05Z"/><path class="cls-1" d="M447.35,281.21c-1.27.59-2.55,1.19-3.83,1.79l3.83-1.79Z"/><path class="cls-1" d="M231.28,271.7c-30.49,4.74-65.52,16.81-107.55,39.97-.2.11-.42-.07-.4-.29,0,.02-.02.04-.03.06-.16.36-.52.59-.89.56-45.64-3.01-60.54,10.14-95.92,32.25,7.79-3.22,40.17-15.08,68.81-3.48,43.79,17.73,70.6,65.03,72.6,68.64.05.08.16.06.18-.03.8-3.14,9.29-35.35,28.94-75.93,13.24-27.35,24.98-47.48,34.26-61.76Z"/><path class="cls-1" d="M123.33,311.39c-.01.22.2.4.4.29,42.03-23.16,77.05-35.23,107.55-39.97,68.16-10.59,113.67,15.51,164.06,36.63.34.14.71-.12.72-.51,4.73-162.78,13.53-183.52,33.4-250.93-18.89.8-40.47,5.48-63.35,13.77-71.93,31.24-176.75,89-242.78,240.73Z"/><path class="cls-1" d="M396.06,307.47c-.01.5.5.83.91.59,14.49-8.68,28.32-16.19,41.58-22.67,1.67-.82,3.32-1.6,4.97-2.38,1.28-.61,2.56-1.21,3.83-1.79.51-.24,1.02-.47,1.54-.7,2.57-1.18,5.11-2.31,7.64-3.41,93.15-40.48,158.62-28.4,236.06-9.77,22.56,5.43,46.13,11.41,71.7,16.8.27.06.49-.27.33-.51-63.68-101.23-171.78-178.67-271.06-222.91-15.97-2.36-32.9-3.68-50.87-3.86-3.7-.04-7.44-.03-11.22.03-.67.01-1.33,0-2,.02-19.85,67.36-28.66,88.12-33.39,250.58Z"/><path class="cls-1" d="M765.45,284.09c76.65-34.92,102.71.16,145.09,14.62.42.14.77-.4.48-.76-6.53-7.99-13.01-16.12-19.53-24.33-77.42-97.41-160.56-205.3-397.98-212.95,0,0,0,0,0,0,99.38,44.27,207.61,121.82,271.28,223.2.14.23.43.31.67.21Z"/><path class="cls-1" d="M122.41,312.01c.38.02.74-.2.89-.56,0-.02.02-.04.03-.06,66.05-151.78,170.91-209.53,242.84-240.76,0,0,0,0,0,0C172.99,110.9,111.8,204.07.54,359.06c-.14.2.07.46.28.34,9.8-5.41,18.18-10.47,25.66-15.15,35.39-22.11,50.29-35.26,95.92-32.25Z"/><path class="cls-1" d="M463.15,660.43l-3.49.17-12.26.58-4.22.2s1.14,21.46,1.55,38.25c.22,8.8-.16,4.7.66,50.59.6,33.71.17,34.7-4.8,45.98-1.44,3.28-6.41,13.82-16.37,13.19-7.19-.45-11.4-5.17-13.82-11.22-2.07-5.18-4.02-8.47-2.91-27.31.99-16.88.6-20.09-1.69-22.19-3.83-3.52-11.42-2.52-15.98,1.25-6.76,5.59-6.11,16.64-5.45,25.93,1.18,16.45,2.92,40.69,21.35,50.34,11.89,6.22,26.04,3.93,35.94-2.09,12.83-7.8,20.92-26.53,21.78-37.67,2.33-30.27.75-15.88.19-73.19-.29-29.39-.46-52.82-.46-52.82Z"/><line class="cls-1" x1="445.67" y1="660.76" x2="443.16" y2="590.02"/><line class="cls-1" x1="458.37" y1="660.55" x2="455.86" y2="589.81"/><line class="cls-1" x1="440.27" y1="370.06" x2="441.84" y2="449.92"/><line class="cls-1" x1="451.07" y1="369.79" x2="452.64" y2="449.65"/></svg>