<?xml version="1.0" encoding="UTF-8"?><svg id="minder" xmlns="http://www.w3.org/2000/svg" width="167.32" height="401" viewBox="0 0 167.32 401"><defs><style>.cls-1{fill:none;stroke:#243c56;stroke-linecap:round;stroke-linejoin:round;}</style></defs><path class="cls-1" d="M108.81,51.25c2.42,2.58,3.95,5.6,4.42,9.12.09.66.42.92.86,1.38,5.76,5.97,12.75,10.31,19.58,14.86,3.44,2.29,6.64,4.92,8.86,8.46,3.14,4.99,3.56,10.42,2.8,16.23-.61,4.64-1.55,9.15-3.02,13.54-2.56,7.6-6.01,14.84-9.03,22.26-1.88,4.63-3.68,9.38-4,14.44-.25,3.96.73,7.81,1.96,11.56,2.43,7.38,6.53,14,9.58,21.11,5.21,12.13,9.94,24.43,14.15,36.93,3.58,10.62,6.92,21.33,9.54,32.24,1.27,5.31,2.53,10.66,2.29,16.22-.19,4.36-3.26,8.33-7.34,9.37-1.4.35-1.99.03-2.49-1.35-1.18-3.26-1.57-6.69-2.36-10.03-.61-2.59-1.08-5.21-1.81-7.77-1.13-3.95-3.18-5.05-7.12-4.26-6.32,1.28-12.56,2.91-18.87,4.25-2.65.57-2.72.82-2.92,3.56-.31,4.22,1.49,7.9,3.01,11.53,2.62,6.27,4.22,12.75,5.48,19.38,1.04,5.45,1.65,10.94,2.28,16.45,1.01,8.74,1.06,17.51.7,26.24-.3,7.31-1.02,14.65-2.91,21.82-.52,1.99-1.78,2.78-3.22,3.24-2.12.67-2.31,1.83-2.02,3.75.59,3.91,1.23,7.84-.59,11.68-.7,1.49-1.19,2.78-3.13,3.16-2.17.43-2.95,2.22-3.14,4.38-.76,8.43-5.17,14.03-13.96,15.18-2.09.27-4.15.39-6.23.36-4.26-.05-6.43-2.94-5.57-7.1,1.09-5.24,4.05-9.6,6.47-14.22,1.85-3.52,3.99-6.89,5.8-10.44.78-1.52,1.4-3.04,1.64-4.79-.87-.93-2.23-1.2-3.47-1.65-2.75-1.01-2.98-1.53-3.37-4.24-.67-4.74-.86-9.52-1.69-14.24-.28-1.6-.25-3.26-.42-4.89-.56-5.41-1.2-10.82-1.78-16.23-.59-5.51-1.42-10.99-2.37-16.43-1.05-6.03-2.83-11.92-4.5-17.82-1.55-5.51-2.69-11.15-3.46-16.87-.62-4.59-1.29-9.17-1.83-13.78-.14-1.23-.05-2.58-.66-4.01h-14.48c-.51,1.39-.38,2.61-.28,3.78.87,9.65.41,19.27-.4,28.91-.24,2.8-.31,5.65-.61,8.43-.47,4.37-.58,8.77-1.16,13.14-.4,2.99-.08,6.07-.08,9.1,0,4.99-1.22,6.86-5.78,8.65-1.11.44-2.59.19-3.29,1.37-.91,1.53-.04,3.2.31,4.62.57,2.35.52,4.69.23,6.91-.59,4.55-4.17,6.67-8.79,5.81-2.37-.44-4.31.51-6.01,2.19-2.43,2.41-4.59,5.11-7.75,6.7-4.84,2.42-9.83,4.22-15.33,4.22-2.48,0-4.52-1.05-6.19-2.71-1.99-1.96-1.82-4.64.43-7.3,3.22-3.79,7.11-6.85,11.09-9.79,4.25-3.14,7.94-6.86,11.32-10.9.72-.85,1.07-1.7.02-2.68-1.39-1.29-1.36-2.78-1.03-4.67.38-2.14.51-4.43.31-6.64-.3-3.26-.05-6.53-.2-9.78-.46-9.93-1.09-19.85-1.09-29.79,0-7.17.67-14.27,1.93-21.35,1.08-6.08,1.32-12.26.73-18.44"/><path class="cls-1" d="M26.64,152.63c-3.73-.12-7.42-.56-11.1-1.12-1.57-.24-2.82-1.1-3.07-2.67-.43-2.74-1.93-5.07-2.59-7.75-1.48-6.03-2.41-12.1-3.03-18.25-1.14-11.46,2.5-21.14,10.44-29.36,9.06-9.38,18.71-18.05,29.55-25.33,3.17-2.13,6.45-4.08,9.99-5.57,4.7-1.99,9.51-1.8,14.45-1.19,2.35.29,3.79,1.49,5.33,2.96,4.89,4.65,12.89,4.94,18.85,1.34,5.77-3.48,9.45-8.86,12.89-14.44"/><path class="cls-1" d="M8.43,184.2c-.98,2.04-.74,4.31-1.04,6.46-.54,3.85-1.12,7.7-1.71,11.54-.54,3.49-1.06,6.99-1.69,10.46-1.26,7,2.65,11.2,8.01,14.42,6.32,3.79,13.1,6,20.63,5.88,5.71-.09,11.36-.09,16.88-1.83,7.87-2.47,11.48-8.16,11.74-16.25.13-3.92.24-7.87-.05-11.78-.24-3.19-.35-6.37-.38-9.56-.01-1.71.94-3.37.23-5.11"/><path class="cls-1" d="M21.76,179.98c.23-1.73-.79-3.21-.97-4.88-.13-1.16-1.36-1.39-2.58-1.38-2.42.02-4.17-1.65-3.76-3.52.66-3.01,4.09-4.21,6.45-2.49,1.5,1.09,2.25,3.17,4.4,3.37.1-.68.53-1.25.47-2-.21-2.7.7-4.98,2.63-6.9.98-.98,1.54-2.26.21-3.29-2.87-2.23-1.98-4.94-1.06-7.58,1.77-5.08,4.8-9.38,8.64-13.12,2.15-2.09,2.12-4.58,1.83-7.35-.44-4.27-1.06-8.5-.69-12.9.27-3.34-.85-6.88-2.68-10-2.77-4.72-4.89-9.72-6.02-15.11-.39-1.85-.63-3.84.07-5.53,1.12-2.7,4.09-2.66,7.04-.27,4.04,3.27,6.2,7.68,7.74,12.47.32.98.57,1.94,1.35,2.66"/><path class="cls-1" d="M101.26,43.47c-1.35-1.47-1.07-3.38-1.3-5.12-.23-1.78.29-3.65-.97-5.53-1.52.02-3.32-.1-5.06-.68-2.8-.94-5.2-2.59-6.8-4.96-1.38-2.04-2.82-1.69-4.52-1.05-2.88,1.08-5.66,2.39-8.89,2.24-5.94-.27-9.89-3.37-11.53-8.93-.92-3.14,2.05-7.93,5.54-8.6,2.48-.47,3.48-1.55,3.83-4.06.57-4.12,4.42-6.54,8.81-6.28,2.36.14,4.61.73,6.62,1.69,3.12,1.49,6.29,1.11,9.36.71,5.08-.67,8.73.69,11.6,4.96.54.81,1.06,1.62,1.51,2.47.86,1.63,1.98,3.1,3.58,3.96,3.42,1.85,4.75,5.06,5.01,8.49.81,10.44-2.38,19.71-9.03,27.78"/><path class="cls-1" d="M13.1,150.85c-3.03,2.11-6.29,3.9-8.68,6.87-2.43,3.02-3.89,6.43-3.91,10.25-.02,4.09,1.48,7.79,3.92,11.12,5.81,7.9,14.22,11.09,23.34,12.84,6.3,1.21,12.68,1.52,19.09.52,4.88-.76,9.45-2.48,13.96-4.31,5.28-2.13,9.45-8.9,8.85-14.39-.66-6.02-4.17-10.19-9.49-12.91-.68-.35-1.54-.36-2-1.1"/><path class="cls-1" d="M113.25,61.7c-7.91,6.57-14.63,14.17-20.53,22.6-1.66,2.37-2.67,4.82-3.7,7.4-.97,2.43-2.11,4.8-3.07,7.24-2.63,6.66-6.39,12.36-12.13,16.9-2.46,1.94-4.42,1.43-6.75.76-2.28-.65-4.36-1.83-6.42-2.93-3.82-2.05-7.87-2.28-12.02-2.15-1.26.04-2.11-.25-2.21-1.58-.17-2.32-.61-4.59-.88-6.89-.16-1.3.81-2.38.71-3.78-.15-2.14-.34-4.29-.3-6.44.02-1.03.14-2.16.72-2.85,3.14-3.68,5.13-3.22,7.51.18,1.92,2.75,2.63,5.92,3.06,9.12.57,4.19.98,8.42.48,12.67"/><path class="cls-1" d="M90.6,86.6c-.81-1.18-.65-2.57-.39-3.77.77-3.56-.43-5.8-4.72-5.88-2.95-.06-4.59-1.27-5.99-3.46-.49-.76-1.11-1.41-1.78-1.99-.92-.8-2.05-.94-3.09-.42-1.07.53-2.36,1.22-2.2,2.63.59,5.09-1.99,9.49-2.96,14.22-1.21,5.88-2.39,11.77-1.9,17.79.25,3.09.97,6.15,1.97,9.11.23.67.44,1.31.42,2.01"/><path class="cls-1" d="M77.94,138.18c1.48,1.52,3.56,1.91,5.33,2.88,5.44,3,10.52,6.62,16.01,9.53,3.06,1.63,6.05,3.46,9.75,3.69,1.66.1,3.13-.26,4.67-.54"/><path class="cls-1" d="M66.95,27.02c-.92,2.44-1.21,5.05-.93,7.55.79,7.14,2.24,14.16,4.8,20.91.58,1.53,1.23,3.03,2.07,4.41.35.56.35,1.04.39,1.59"/><path class="cls-1" d="M58.62,174.2c-3.66,3.5-7.77,6.44-12.68,7.71-5.56,1.43-11.24,2.55-17.08,1.66-.97-.15-1.8-.44-2.67-.89-5.07-2.59-10.08-5.25-14.64-8.7"/><path class="cls-1" d="M72.61,117.73c1.18,1.45,2.99,1.04,4.45,1.25,5.45.77,7.77,3.88,6.42,9.2-.92,3.6-2.77,6.66-5.31,9.35-.57.6-1.11.5-1.79.45-2.51-.19-4.53-1.38-6.45-2.9-1.7-1.34-3.28-2.85-5.12-3.98-2.51-1.55-5.4-1.7-8.19-1.29-1.91.28-3.55-.51-5.34-.59-.55-.02-.91.1-1.34.29"/><path class="cls-1" d="M11.76,144.85c1.09-.94,1.22-2.36,1.77-3.56,2.26-4.96,6.89-7.46,12.23-6.94,3.67.36,6.19,2.32,8.43,4.94"/><path class="cls-1" d="M55.07,130.18c-.21,2.43-1.27,4.61-1.96,6.9-.39,1.3-.53,2.56.8,3.81,5.41,5.09,6.18,11.39,3.99,18.17-.63,1.97-2.65,2.96-4.19,4.21-.74.6-1.62,1.05-2.44,1.54-2.14,1.29-2.43,1.66-1.51,3.81.92,2.16,1.59,4.38,1.96,6.68.19,1.16-.14,2.37.02,3.55"/><path class="cls-1" d="M34.41,94.61c-.55.77-.46,1.74-.18,2.43,2.36,5.8,4.4,11.72,6.62,17.58"/><path class="cls-1" d="M72.61,78.6c1.61,1.97,3.65,2.87,6.22,2.69,1.42-.1,2.56.44,3.36,1.74.47.76,1.06,1.47,1.52,2.24,1.44,2.42,3.24,3.9,6.23,2.66"/><path class="cls-1" d="M32.64,89.49c.5,2.59,1.97,4.51,3.69,6.52,3.4,3.98,5.32,8.84,6.49,13.94.19.83.56,1.6.7,2.44"/><path class="cls-1" d="M51.29,95.61c-1.67.15-1.33,1.6-1.52,2.56-.84,4.3-.37,8.66-.48,13"/><path class="cls-1" d="M106.14,36.03c2.13.72,2.73,1.79,2.47,3.89-.15,1.24-.55,2.4-.95,3.54-.86,2.45-.79,4.73.7,6.9"/><path class="cls-1" d="M51.51,96.16c1.51.83.84,2.39,1.05,3.57.68,3.82,1.38,7.65,1.39,11.55"/><path class="cls-1" d="M37.75,123.95c.59.24,1.21.36,1.78.66,2.94,1.59,4.62,3.71,3.83,7.36-.35,1.63-.33,3.39-.28,5.1"/><path class="cls-1" d="M105.92,35.25c-1.09,2.04-2.06,4.12-2.51,6.43-.11.56-.65,1.33-1.48,1.58-.83.25-1.27.84-1.11,1.76"/><path class="cls-1" d="M43.74,127.95c1.84-.66,3.47.16,5.1.79.63.25.72.61.67,1.65-.08,1.88-.79,3.67-.78,5.56"/><path class="cls-1" d="M46.63,111.28c-2.24.87-4.23,2.19-5.97,3.81-.96.89-1.36,2.39-2.91,2.64"/></svg>