<?xml version="1.0" encoding="UTF-8"?><svg id="Layer_1" xmlns="http://www.w3.org/2000/svg" width="91.35" height="71" viewBox="0 0 91.35 71"><defs><style>.cls-1{fill:none;stroke:#f0f7fe;}</style></defs><path class="cls-1" d="M83.24,70.5H8.12c-2.19,0-3.99-.73-5.44-2.17-1.45-1.45-2.17-3.25-2.18-5.44V8.12c0-2.19.73-3.99,2.18-5.44,1.45-1.45,3.25-2.18,5.43-2.18h75.12c2.19,0,3.99.73,5.43,2.18,1.45,1.45,2.18,3.25,2.18,5.44v54.77c0,2.19-.73,3.99-2.18,5.44-1.45,1.45-3.25,2.18-5.43,2.17ZM6.1,5.83l39.24,25.09.33.21.33-.21L85.13,5.49l1.71-1.11H4.03l2.07,1.45ZM4.21,8.6c.06,18.1.11,36.19.17,54.29v3.73h78.86c1.05,0,1.96-.35,2.68-1.06.71-.71,1.06-1.62,1.06-2.68V8.36l-.94.61-40.36,26.4C32.2,26.7,18.72,18.04,5.24,9.38c-.34-.26-.69-.52-1.03-.78Z"/></svg>