<?xml version="1.0" encoding="UTF-8"?><svg id="minder" xmlns="http://www.w3.org/2000/svg" width="446.25" height="1071.84" viewBox="0 0 446.25 1071.84"><defs><style>.cls-1{fill:none;stroke:#383838;stroke-linecap:round;stroke-linejoin:round;}</style></defs><path class="cls-1" d="M290.44,136.37c6.48,6.91,10.58,14.99,11.84,24.41.24,1.77,1.13,2.47,2.31,3.68,15.43,16,34.14,27.59,52.42,39.78,9.21,6.14,17.78,13.16,23.73,22.64,8.4,13.37,9.53,27.88,7.48,43.44-1.63,12.42-4.14,24.49-8.09,36.24-6.85,20.34-16.1,39.73-24.17,59.59-5.04,12.4-9.85,25.1-10.7,38.65-.66,10.6,1.94,20.9,5.25,30.93,6.51,19.75,17.47,37.49,25.64,56.51,13.94,32.46,26.6,65.4,37.87,98.86,9.58,28.44,18.53,57.1,25.53,86.3,3.41,14.22,6.78,28.53,6.12,43.42-.52,11.68-8.73,22.31-19.66,25.07-3.74.94-5.33.08-6.67-3.61-3.17-8.73-4.19-17.91-6.32-26.85-1.65-6.92-2.89-13.95-4.85-20.81-3.03-10.56-8.51-13.53-19.06-11.39-16.93,3.43-33.64,7.78-50.52,11.38-7.1,1.51-7.28,2.18-7.83,9.54-.84,11.3,4,21.14,8.07,30.86,7.03,16.78,11.29,34.14,14.67,51.87,2.78,14.58,4.42,29.28,6.12,44.03,2.69,23.41,2.83,46.87,1.87,70.24-.8,19.58-2.73,39.21-7.79,58.4-1.4,5.32-4.77,7.45-8.63,8.66-5.69,1.79-6.18,4.89-5.41,10.04,1.57,10.46,3.28,20.99-1.57,31.27-1.88,3.98-3.18,7.43-8.38,8.47-5.81,1.16-7.89,5.94-8.42,11.72-2.04,22.58-13.85,37.57-37.37,40.65-5.59.73-11.11,1.04-16.67.97-11.41-.14-17.23-7.86-14.9-19.01,2.92-14.02,10.84-25.71,17.33-38.06,4.96-9.43,10.67-18.43,15.53-27.94,2.08-4.07,3.75-8.13,4.39-12.83-2.33-2.5-5.97-3.21-9.28-4.43-7.37-2.71-7.99-4.09-9.02-11.35-1.79-12.68-2.31-25.49-4.52-38.13-.75-4.27-.66-8.72-1.11-13.09-1.5-14.49-3.22-28.96-4.77-43.45-1.58-14.76-3.81-29.42-6.33-43.99-2.8-16.14-7.59-31.9-12.05-47.71-4.16-14.76-7.21-29.86-9.27-45.15-1.66-12.29-3.46-24.56-4.89-36.89-.38-3.3-.12-6.92-1.76-10.74h-38.76c-1.37,3.71-1.02,6.99-.74,10.11,2.32,25.85,1.11,51.6-1.07,77.39-.63,7.49-.83,15.13-1.64,22.57-1.26,11.7-1.56,23.48-3.1,35.17-1.06,7.99-.2,16.24-.2,24.37,0,13.36-3.26,18.37-15.48,23.16-2.98,1.17-6.93.51-8.82,3.67-2.45,4.09-.1,8.58.83,12.38,1.54,6.28,1.4,12.55.63,18.49-1.58,12.18-11.17,17.84-23.54,15.56-6.35-1.17-11.54,1.36-16.08,5.86-6.49,6.44-12.28,13.69-20.75,17.93-12.96,6.48-26.31,11.28-41.04,11.3-6.65,0-12.09-2.82-16.58-7.24-5.33-5.26-4.88-12.42,1.16-19.53,8.62-10.14,19.03-18.34,29.69-26.21,11.38-8.41,21.24-18.37,30.29-29.19,1.92-2.29,2.88-4.56.06-7.18-3.72-3.45-3.65-7.44-2.75-12.51,1.01-5.72,1.37-11.87.83-17.79-.79-8.74-.12-17.47-.53-26.19-1.22-26.58-2.93-53.14-2.91-79.75.01-19.2,1.8-38.21,5.16-57.16,2.88-16.27,3.53-32.82,1.94-49.37"/><path class="cls-1" d="M70.49,407.77c-9.98-.31-19.87-1.5-29.72-2.99-4.21-.64-7.55-2.95-8.21-7.15-1.14-7.34-5.16-13.56-6.92-20.75-3.96-16.13-6.46-32.38-8.1-48.86-3.05-30.67,6.7-56.59,27.96-78.59,24.25-25.1,50.08-48.31,79.1-67.82,8.5-5.71,17.26-10.92,26.73-14.92,12.59-5.32,25.45-4.82,38.68-3.17,6.29.78,10.14,3.99,14.28,7.92,13.08,12.45,34.5,13.21,50.47,3.59,15.45-9.31,25.31-23.71,34.49-38.66"/><path class="cls-1" d="M21.74,492.28c-2.63,5.47-1.99,11.53-2.79,17.28-1.44,10.31-3,20.62-4.58,30.89-1.44,9.33-2.84,18.7-4.52,28.01-3.38,18.74,7.09,29.99,21.46,38.6,16.92,10.14,35.06,16.05,55.24,15.75,15.29-.23,30.4-.25,45.19-4.9,21.07-6.62,30.74-21.85,31.43-43.5.34-10.5.65-21.07-.13-31.53-.63-8.54-.94-17.06-1.02-25.61-.04-4.58,2.5-9.03.61-13.69"/><path class="cls-1" d="M57.41,480.97c.62-4.62-2.11-8.59-2.6-13.07-.34-3.1-3.64-3.73-6.91-3.69-6.48.07-11.15-4.42-10.06-9.41,1.77-8.05,10.94-11.27,17.27-6.66,4.02,2.92,6.03,8.49,11.79,9.03.27-1.82,1.42-3.35,1.26-5.36-.56-7.23,1.87-13.34,7.04-18.48,2.64-2.62,4.12-6.06.57-8.81-7.68-5.98-5.31-13.22-2.85-20.29,4.74-13.61,12.86-25.12,23.13-35.12,5.76-5.61,5.67-12.26,4.9-19.67-1.19-11.44-2.83-22.75-1.86-34.54.74-8.93-2.27-18.43-7.17-26.77-7.42-12.63-13.1-26.02-16.1-40.44-1.03-4.96-1.69-10.27.19-14.8,3.01-7.24,10.96-7.11,18.86-.71,10.81,8.76,16.59,20.55,20.72,33.38.84,2.62,1.53,5.19,3.62,7.12"/><path class="cls-1" d="M270.23,115.54c-3.61-3.93-2.88-9.04-3.47-13.7-.61-4.76.78-9.77-2.61-14.79-4.08.06-8.89-.27-13.55-1.82-7.5-2.51-13.93-6.94-18.21-13.27-3.69-5.46-7.54-4.52-12.09-2.81-7.71,2.9-15.15,6.39-23.79,6-15.91-.72-26.48-9.03-30.86-23.89-2.48-8.4,5.49-21.24,14.84-23.01,6.65-1.26,9.33-4.16,10.26-10.87,1.54-11.02,11.84-17.51,23.59-16.82,6.31.37,12.35,1.97,17.71,4.53,8.36,3.99,16.85,2.98,25.05,1.9,13.6-1.79,23.36,1.85,31.05,13.27,1.46,2.16,2.84,4.33,4.04,6.62,2.3,4.36,5.31,8.3,9.57,10.61,9.15,4.96,12.71,13.54,13.42,22.73,2.16,27.95-6.36,52.76-24.17,74.38"/><path class="cls-1" d="M34.22,403.01c-8.12,5.66-16.84,10.45-23.25,18.4-6.52,8.09-10.43,17.22-10.47,27.43-.05,10.96,3.96,20.86,10.51,29.78,15.54,21.16,38.07,29.68,62.47,34.38,16.88,3.25,33.94,4.07,51.12,1.39,13.07-2.04,25.3-6.65,37.38-11.53,14.13-5.71,25.3-23.82,23.69-38.53-1.76-16.11-11.16-27.27-25.4-34.56-1.81-.93-4.13-.96-5.36-2.95"/><path class="cls-1" d="M302.33,164.35c-21.16,17.59-39.17,37.94-54.97,60.51-4.44,6.34-7.14,12.91-9.89,19.81-2.6,6.51-5.65,12.86-8.22,19.38-7.03,17.83-17.11,33.1-32.48,45.24-6.59,5.2-11.83,3.84-18.08,2.04-6.1-1.75-11.66-4.89-17.17-7.85-10.22-5.49-21.08-6.11-32.17-5.74-3.38.11-5.65-.66-5.91-4.24-.45-6.2-1.62-12.3-2.36-18.45-.42-3.47,2.17-6.38,1.9-10.12-.41-5.72-.91-11.48-.8-17.25.05-2.76.36-5.79,1.94-7.64,8.4-9.84,13.74-8.61,20.11.49,5.14,7.35,7.05,15.85,8.2,24.43,1.51,11.23,2.64,22.54,1.29,33.91"/><path class="cls-1" d="M241.7,231.01c-2.18-3.16-1.74-6.88-1.05-10.09,2.05-9.52-1.15-15.53-12.63-15.75-7.89-.15-12.3-3.41-16.05-9.27-1.3-2.03-2.97-3.77-4.77-5.34-2.46-2.14-5.47-2.51-8.26-1.13-2.87,1.42-6.32,3.28-5.88,7.05,1.59,13.63-5.32,25.39-7.93,38.08-3.25,15.75-6.4,31.5-5.1,47.62.67,8.26,2.59,16.47,5.26,24.39.6,1.79,1.17,3.49,1.13,5.38"/><path class="cls-1" d="M207.81,369.08c3.95,4.07,9.54,5.11,14.28,7.72,14.56,8.04,28.16,17.71,42.85,25.51,8.2,4.35,16.2,9.26,26.09,9.87,4.45.27,8.37-.7,12.5-1.43"/><path class="cls-1" d="M178.38,71.5c-2.47,6.54-3.24,13.52-2.5,20.22,2.11,19.11,6,37.9,12.84,55.99,1.55,4.1,3.29,8.11,5.55,11.8.93,1.51.93,2.79,1.05,4.25"/><path class="cls-1" d="M156.09,465.5c-9.81,9.37-20.79,17.25-33.94,20.63-14.89,3.83-30.1,6.84-45.73,4.43-2.59-.4-4.83-1.18-7.16-2.38-13.57-6.93-26.99-14.07-39.2-23.28"/><path class="cls-1" d="M193.54,314.33c3.16,3.88,8.01,2.79,11.92,3.34,14.6,2.06,20.81,10.4,17.19,24.63-2.45,9.63-7.43,17.83-14.21,25.04-1.51,1.61-2.96,1.35-4.8,1.21-6.73-.51-12.13-3.7-17.26-7.76-4.54-3.59-8.79-7.63-13.7-10.66-6.71-4.15-14.46-4.54-21.92-3.44-5.1.75-9.5-1.37-14.29-1.58-1.48-.07-2.44.26-3.58.78"/><path class="cls-1" d="M30.66,386.94c2.92-2.5,3.26-6.31,4.73-9.53,6.05-13.29,18.45-19.96,32.73-18.57,9.82.96,16.58,6.21,22.58,13.22"/><path class="cls-1" d="M146.58,347.66c-.55,6.51-3.4,12.35-5.24,18.48-1.04,3.47-1.41,6.85,2.15,10.2,14.5,13.63,16.53,30.48,10.69,48.64-1.7,5.28-7.1,7.91-11.23,11.28-1.97,1.61-4.34,2.81-6.54,4.13-5.73,3.45-6.5,4.45-4.05,10.2,2.47,5.78,4.25,11.72,5.23,17.89.5,3.12-.37,6.34.06,9.51"/><path class="cls-1" d="M91.29,252.43c-1.47,2.07-1.23,4.65-.48,6.5,6.33,15.53,11.79,31.39,17.72,47.07"/><path class="cls-1" d="M193.54,209.58c4.31,5.27,9.78,7.68,16.65,7.19,3.79-.27,6.85,1.18,8.98,4.67,1.25,2.05,2.83,3.94,4.07,6.01,3.85,6.47,8.68,10.44,16.67,7.13"/><path class="cls-1" d="M86.54,238.74c1.34,6.94,5.28,12.07,9.88,17.45,9.1,10.65,14.24,23.66,17.38,37.32.51,2.23,1.49,4.29,1.87,6.53"/><path class="cls-1" d="M136.47,255.11c-4.46.41-3.57,4.28-4.08,6.86-2.25,11.51-.98,23.19-1.27,34.8"/><path class="cls-1" d="M283.31,95.61c5.7,1.94,7.31,4.79,6.61,10.42-.41,3.32-1.48,6.43-2.55,9.48-2.31,6.57-2.11,12.66,1.88,18.48"/><path class="cls-1" d="M137.07,256.6c4.05,2.22,2.24,6.39,2.81,9.55,1.83,10.21,3.7,20.47,3.73,30.92"/><path class="cls-1" d="M100.21,330.99c1.57.64,3.25.95,4.76,1.77,7.88,4.24,12.37,9.94,10.26,19.69-.95,4.36-.89,9.08-.76,13.65"/><path class="cls-1" d="M282.72,93.52c-2.92,5.47-5.51,11.02-6.72,17.22-.29,1.5-1.75,3.56-3.97,4.24-2.21.68-3.39,2.26-2.98,4.72"/><path class="cls-1" d="M116.26,341.71c4.93-1.76,9.28.42,13.66,2.12,1.69.66,1.91,1.64,1.8,4.43-.2,5.03-2.13,9.82-2.08,14.88"/><path class="cls-1" d="M123.99,297.07c-6.01,2.33-11.32,5.85-15.98,10.2-2.57,2.39-3.65,6.4-7.8,7.06"/></svg>